<svg viewBox="0 0 150 201" version="1.1" width="150" height="201" xmlns="http://www.w3.org/2000/svg"><path fill="#0043ff" d="M 33.253334,16.074 C 21.55506,16.074 12.044,25.585023 12.044,37.28325 v 127.2555 c 0,11.69823 9.51106,21.20925 21.209334,21.20925 h 84.837326 c 11.69828,0 21.20934,-9.51102 21.20934,-21.20925 V 69.097125 H 96.881334 c -5.865707,0 -10.604668,-4.738942 -10.604668,-10.604625 V 16.074 Z m 63.628,0 V 58.4925 H 139.3 Z m -47.721,84.837 h 53.023336 c 2.91628,0 5.30233,2.38604 5.30233,5.30231 0,2.91628 -2.38605,5.30232 -5.30233,5.30232 H 49.160334 c -2.916284,0 -5.302334,-2.38604 -5.302334,-5.30232 0,-2.91627 2.38605,-5.30231 5.302334,-5.30231 z m 0,21.20925 h 53.023336 c 2.91628,0 5.30233,2.38604 5.30233,5.30231 0,2.91628 -2.38605,5.30232 -5.30233,5.30232 H 49.160334 c -2.916284,0 -5.302334,-2.38604 -5.302334,-5.30232 0,-2.91627 2.38605,-5.30231 5.302334,-5.30231 z m 0,21.20925 h 53.023336 c 2.91628,0 5.30233,2.38604 5.30233,5.30231 0,2.91628 -2.38605,5.30231 -5.30233,5.30231 H 49.160334 c -2.916284,0 -5.302334,-2.38603 -5.302334,-5.30231 0,-2.91627 2.38605,-5.30231 5.302334,-5.30231 z" style="stroke-width:0.331395" /></svg>