<svg xmlns="http://www.w3.org/2000/svg" viewBox="0 0 150 150" width="150" height="150" version="1.1"><defs><linearGradient id="a" x1="3.2173" y1="15" x2="44.7812" y2="15" gradientUnits="userSpaceOnUse" gradientTransform="scale(3.125)"><stop offset="0" stop-color="#d93025"/><stop offset="1" stop-color="#ea4335"/></linearGradient><linearGradient id="b" x1="20.7219" y1="47.6791" x2="41.5039" y2="11.6837" gradientUnits="userSpaceOnUse" gradientTransform="scale(3.125)"><stop offset="0" stop-color="#fcc934"/><stop offset="1" stop-color="#fbbc04"/></linearGradient><linearGradient id="c" x1="26.5981" y1="46.5015" x2="5.8161" y2="10.506" gradientUnits="userSpaceOnUse" gradientTransform="scale(3.125)"><stop offset="0" stop-color="#1e8e3e"/><stop offset="1" stop-color="#34a853"/></linearGradient></defs><ellipse cx="75" cy="75" rx="37.5" ry="37.5" fill="#ffffff"/><path d="M 10.05,112.5 A 75,75 0 1 0 37.5,10.05 75,75 0 0 0 10.05,112.5 Z M 107.48,56.25 A 37.5,37.5 0 1 1 56.25,42.52 37.5,37.5 0 0 1 107.48,56.25 Z" fill="none"/><path d="M 75,37.5 H 139.94 A 75,75 0 0 0 10.05,37.51 L 42.52,93.75 A 37.5,37.5 0 0 1 75,37.5 Z" fill="url(#a)"/><ellipse cx="75" cy="75" rx="29.69" ry="29.69" fill="#1a73e8"/><path d="M 107.47,93.76 75,150 A 75,75 0 0 0 139.94,37.51 H 75 A 37.5,37.5 0 0 1 107.47,93.76 Z" fill="url(#b)"/><path d="M 42.53,93.76 10.06,37.52 A 75,75 0 0 0 75,150 L 107.47,93.76 A 37.5,37.5 0 0 1 42.53,93.76 Z" fill="url(#c)"/></svg>