<svg xmlns="http://www.w3.org/2000/svg" width="300" height="300" viewBox="0 0 32 32"><path id="path1" style="fill:#ffb900" d="M 13.689453,3.6425781 A 12.384,12.384 0 1 0 25.142578,22.148438 l -5.382812,-3.123047 a 6.167,6.167 0 1 1 -0.03906,-6.117188 L 25.109375,9.8085938 A 12.384,12.384 0 0 0 13.689453,3.6425781 Z M 26.914062,13.962891 v 0.0078 h 0.002 v 0.002 h 0.002 c 0.0044,-9.84e-4 0.0093,-0.0029 0.01367,-0.0039 -0.0059,-0.0019 -0.01171,-0.004 -0.01758,-0.0059 z" /><rect style="fill:#ffb900;fill-opacity:1;stroke-width:1.47483" id="rect7-8" width="1.6904826" height="7.4650002" x="26.931732" y="12.234" /><rect style="fill:#ffb900;fill-opacity:1;stroke-width:1.47462" id="rect7-8-5" width="1.6900001" height="7.4650002" x="23.365492" y="12.234" /><rect style="fill:#ffb900;fill-opacity:1;stroke-width:1.39397" id="rect8" width="7.507" height="1.716" x="-29.709" y="13.334" transform="scale(-1,1)" /><rect style="fill:#ffb900;fill-opacity:1;stroke-width:1.39377" id="rect8-1" width="7.507" height="1.7155023" x="-29.709" y="16.875" transform="scale(-1,1)" /></svg>