<svg xmlns="http://www.w3.org/2000/svg" viewBox="0 0 32 32"><title>file_type_config</title><path d="M23.265,24.381l.9-.894c4.164.136,4.228-.01,4.411-.438l1.144-2.785L29.805,20l-.093-.231c-.049-.122-.2-.486-2.8-2.965V15.5c3-2.89,2.936-3.038,2.765-3.461L28.538,9.225c-.171-.422-.236-.587-4.37-.474l-.9-.93a20.166,20.166,0,0,0-.141-4.106l-.116-.263-2.974-1.3c-.438-.2-.592-.272-3.4,2.786l-1.262-.019c-2.891-3.086-3.028-3.03-3.461-2.855L9.149,3.182c-.433.175-.586.237-.418,4.437l-.893.89c-4.162-.136-4.226.012-4.407.438L2.285,11.733,2.195,12l.094.232c.049.12.194.48,2.8,2.962l0,1.3c-3,2.89-2.935,3.038-2.763,3.462l1.138,2.817c.174.431.236.584,4.369.476l.9.935a20.243,20.243,0,0,0,.137,4.1l.116.265,2.993,1.308c.435.182.586.247,3.386-2.8l1.262.016c2.895,3.09,3.043,3.03,3.466,2.859l2.759-1.115C23.288,28.644,23.44,28.583,23.265,24.381ZM11.407,17.857a4.957,4.957,0,1,1,6.488,2.824A5.014,5.014,0,0,1,11.407,17.857Z" style="fill:#99b8c4"/><g transform="translate(15, 15) scale(0.5)"><rect x="2" y="2" width="28" height="28" style="fill:#f5de19"/><path d="M20.809,23.875a2.866,2.866,0,0,0,2.6,1.6c1.09,0,1.787-.545,1.787-1.3,0-.9-.716-1.222-1.916-1.747l-.658-.282c-1.9-.809-3.16-1.822-3.16-3.964,0-1.973,1.5-3.476,3.853-3.476a3.889,3.889,0,0,1,3.742,2.107L25,18.128A1.789,1.789,0,0,0,23.311,17a1.145,1.145,0,0,0-1.259,1.128c0,.789.489,1.109,1.618,1.6l.658.282c2.236.959,3.5,1.936,3.5,4.133,0,2.369-1.861,3.667-4.36,3.667a5.055,5.055,0,0,1-4.795-2.691Zm-9.295.228c.413.733.789,1.353,1.693,1.353.864,0,1.41-.338,1.41-1.653V14.856h2.631v8.982c0,2.724-1.6,3.964-3.929,3.964a4.085,4.085,0,0,1-3.947-2.4Z"/></g></svg>